<?xml version="1.0" standalone="no"?>
<!DOCTYPE svg PUBLIC "-//W3C//DTD SVG 20010904//EN"
 "http://www.w3.org/TR/2001/REC-SVG-20010904/DTD/svg10.dtd">
<svg version="1.0" xmlns="http://www.w3.org/2000/svg"
 width="400.000000pt" height="400.000000pt" viewBox="0 0 400.000000 400.000000"
 preserveAspectRatio="xMidYMid meet">
<metadata>
Created by potrace 1.11, written by Peter Selinger 2001-2013
</metadata>
<g transform="translate(0.000000,400.000000) scale(0.100000,-0.100000)"
fill="#000000" stroke="none">
<path d="M0 2000 l0 -2000 2000 0 2000 0 0 2000 0 2000 -2000 0 -2000 0 0
-2000z m1648 1358 c9 -9 12 -150 12 -575 l0 -563 340 0 340 0 0 556 c0 364 4
562 10 575 10 18 23 19 188 19 125 0 182 -4 190 -12 9 -9 12 -166 12 -645 l0
-633 -27 -6 c-54 -14 -53 -23 -53 623 l0 593 -120 0 -120 0 0 -563 c0 -425 -3
-566 -12 -575 -17 -17 -799 -17 -816 0 -9 9 -12 150 -12 575 l0 563 -120 0
-120 0 -2 -601 c-3 -561 -4 -603 -20 -613 -13 -8 -23 -8 -35 0 -17 10 -18 54
-21 639 -1 455 1 632 9 641 15 19 359 20 377 2z m-320 -1380 c9 -9 12 -165 12
-640 l0 -628 120 0 120 0 0 584 c0 481 2 586 14 595 9 8 127 10 417 9 l404 -3
3 -592 2 -593 120 0 120 0 0 624 c0 554 2 626 16 640 19 19 36 20 52 4 9 -9
12 -172 12 -674 0 -594 -2 -662 -16 -668 -9 -3 -94 -6 -189 -6 -162 0 -175 1
-185 19 -6 13 -10 218 -10 595 l0 576 -340 0 -340 0 0 -583 c0 -440 -3 -586
-12 -595 -17 -17 -359 -17 -376 0 -9 9 -12 171 -12 668 0 680 0 680 40 680 9
0 21 -5 28 -12z"/>
</g>
</svg>
